<svg xmlns="http://www.w3.org/2000/svg" viewBox="0 0 71.95 44.61">
  <path d="M42 3.16c.71.32 1-1.06 1.5-1.46a.42.42 0 00-.1-.58.41.41 0 00-.57.1c-.29.53-1.47 1.41-.83 1.94zM40.13 7.32c.12-.59 1.17-1.54.55-2-.75-.25-.94 1.2-1.3 1.67a.41.41 0 00.75.33zM52.12 8.27c-.73-.31-1 1.14-1.42 1.58a.41.41 0 00.17.56c.73.26.94-1.15 1.38-1.57a.42.42 0 00-.13-.57zM53.87 6.37c.59-.21.9-1 1.4-1.35s-.22-1-.59-.57-1.99 1.62-.81 1.92zM61.67.35a7 7 0 00.86-.35h-1.28a.42.42 0 00.42.35zM57.45 3a11.09 11.09 0 001.63-1.1.42.42 0 00.05-.51c-.54-.58-1.41.61-1.94.87a.42.42 0 00.26.74zM61.66 16.27c.13-.59 1.25-1.45.69-1.95-.74-.34-1.08 1.13-1.43 1.59a.41.41 0 00.74.36zM65.89 11.59a.41.41 0 00-.44-.7c-.45.33-2.38 1.34-1.11 1.74a11 11 0 001.55-1.04zM70.34 9.16a9.56 9.56 0 00-1.77.35.4.4 0 00-.28.51.42.42 0 00.41.3c.54-.13 1.1-.26 1.66-.35a.41.41 0 00-.02-.81zM29.75 3.57a.41.41 0 00.7-.44c-.41-.42-.79-1.84-1.5-1.5-.55.55.6 1.37.8 1.94zM32.07 7.89a.41.41 0 00.75-.33c-.35-.48-.52-1.94-1.27-1.7-.63.47.45 1.44.52 2.03zM21 10.68c1-.27-.28-1.53-.48-2.07a.41.41 0 00-.7.44c.42.47.53 1.45 1.18 1.63zM14.43 3c.41.34.93-.32.51-.65S13.56.9 13 1.48c-.32.7 1.05 1.06 1.43 1.52zM17.91 6.41a.42.42 0 00.64-.53c-.48-.36-1-1.7-1.71-1.27-.45.65.8 1.25 1.07 1.8zM10.5.45a.41.41 0 00.4-.45H9.4a8.49 8.49 0 001.1.45zM9.59 14.34c-.55.52.57 1.35.69 1.95a.41.41 0 10.74-.36c-.34-.46-.69-1.93-1.43-1.59zM7.88 11.91a12.44 12.44 0 00-1.38-1 .41.41 0 00-.57.13c-.29.58.61.79.92 1.14.26.14.48.45.78.46a.42.42 0 00.25-.73zM3.67 10c.06-.79-1.2-.63-1.73-.82-.28-.09-.65 0-.7.31s.3.49.6.51c.56 0 1.52.7 1.83 0zM68.07 28.35a.41.41 0 00-.73.37c.38.5.44 1.55 1.08 1.72 1-.23-.2-1.53-.35-2.09zM40.46 8.91a.41.41 0 00-.3.73 11.66 11.66 0 001.89.33.42.42 0 00.4-.33c.05-.8-1.45-.54-1.99-.73zM47 10.35c-.58-.06-1.78-.91-2.11-.18a.41.41 0 00.29.5c.57.14 1.13.36 1.7.48a.41.41 0 00.12-.8zM61.76 20.11c-.46.65.79 1.25 1.07 1.81a.41.41 0 10.63-.53c-.46-.39-1.03-1.72-1.7-1.28zM58.69 16.7c-.41-.34-.94.31-.53.64s.93 1 1.52 1.17c1.22-.4-.61-1.39-.99-1.81zM51.65 12.21c-.57-.13-1.66-1.15-2.07-.47a.42.42 0 00.22.54c.57.21 1.09.56 1.67.72a.42.42 0 00.18-.79zM7.38 23.43a.41.41 0 00-.58.09c-.23.54-1.41 1.41-.83 1.95.72.31 1-1.07 1.5-1.47a.4.4 0 00-.09-.57zM32.11 8.83c-.54.18-2-.08-2 .7.22.71 1.51.07 2.08.12a.41.41 0 00-.08-.82zM8.94 21.49c.66.39 1.17-.92 1.68-1.25a.41.41 0 00-.6-.57c-.3.49-1.62 1.23-1.08 1.82zM27.67 10a.41.41 0 00-.5-.3c-.53.26-2 .17-1.89 1 .35.7 1.49-.15 2.09-.16a.41.41 0 00.3-.54zM35.46 9.46h1.64a.41.41 0 100-.82h-1.68a.42.42 0 00.04.82zM66.29 26c.61-.52-.57-1.43-.79-2a.42.42 0 00-.58-.1c-.55.55.61 1.36.8 1.94a.43.43 0 00.57.16zM56.1 15.29a.41.41 0 00-.1-.58c-.55-.22-1.39-1.29-1.94-.8-.25.28 0 .6.29.73.54.18 1.21 1.18 1.75.65zM4.15 29.62c.13-.59 1.18-1.54.56-2-.75-.26-1 1.19-1.3 1.66a.41.41 0 00.74.34zM22.72 12a.41.41 0 00-.32-.76c-.48.33-2 .45-1.73 1.22.44.66 1.45-.33 2.05-.46zM14.33 16.38a.42.42 0 00-.59-.08c-.37.46-1.74 1-1.33 1.65.6.49 1.29-.74 1.84-1a.41.41 0 00.08-.57zM18.31 14.2a.41.41 0 00-.41-.72c-.44.4-1.87.72-1.55 1.45.52.57 1.39-.54 1.96-.73zM57 33c1-.26-.29-1.53-.48-2.07a.42.42 0 00-.71.44c.41.45.51 1.44 1.19 1.63zM36.93 19.51h-1.69a.38.38 0 00-.37.42.44.44 0 00.45.4h1.6a.41.41 0 00.01-.82zM49.55 23.67a.41.41 0 00-.46.68c.57.22 1.31 1.42 1.89.9.38-.7-.98-1.16-1.43-1.58zM42.21 20.73c.07-.8-1.4-.64-1.94-.86a.42.42 0 00-.48.33c0 .78 1.39.54 1.92.82a.4.4 0 00.5-.29zM53.4 26.93c-.36-.39-1 .19-.6.57.52.33 1 1.66 1.67 1.27.53-.6-.76-1.34-1.07-1.84zM46.28 22.71a.41.41 0 00.37-.74c-.58-.16-1.47-1-2-.57-.5.79 1.19.94 1.63 1.31zM16.15 30.58c-.74-.32-1 1.13-1.42 1.58a.41.41 0 00.16.56c.73.25.95-1.15 1.38-1.57a.4.4 0 00-.12-.57zM23.11 24.15a.41.41 0 00-.53-.62c-.4.42-1.82.86-1.44 1.56a.4.4 0 00.34.16 9.71 9.71 0 001.63-1.1zM19.3 27.33c.38-.38-.23-1-.59-.58S17.1 28 17.62 28.58c.69.42 1.15-.92 1.68-1.25zM27.25 21.17a9 9 0 00-1.75.69.42.42 0 00.19.79c.57-.17 1.09-.5 1.66-.69a.41.41 0 00-.1-.79zM32.37 20.17a.41.41 0 00-.47-.34c-.55.21-2 0-2 .84.28.7 1.5-.07 2.09 0a.4.4 0 00.38-.5zM46.14 36.75a.41.41 0 00-.68.46c.46.42.61 1.8 1.35 1.58.65-.47-.44-1.5-.67-2.04zM43.86 34.22c-.51-.29-1.42-1.48-2-.88a.41.41 0 00.14.57c.44.29.85.63 1.28.94a.42.42 0 00.58-.63zM39.36 31.82c-.57-.06-1.92-.76-2.14 0a.41.41 0 00.35.47c.57.08 1.13.23 1.69.35a.42.42 0 00.1-.82zM26.48 37.2a.41.41 0 00-.68-.47c-.23.54-1.33 1.57-.67 2 .73.27.87-1.12 1.35-1.53zM29.47 33.2c-.45.32-2.37 1.34-1.1 1.73.57-.19 1-.74 1.54-1a.41.41 0 00-.44-.73zM34.36 31.47a9.6 9.6 0 00-1.76.34.42.42 0 00-.29.51.41.41 0 00.41.3c.55-.13 1.1-.26 1.66-.34a.41.41 0 00-.02-.81zM71.81 30.93h-.38a.41.41 0 000 .82H72v-.82zM54.43 35.93a.4.4 0 00-.56-.14c-.43.39-1.89.73-1.54 1.45.36.47.86-.13 1.24-.3s1.13-.44.86-1.01zM68.09 31.14c-.57.18-2-.11-2 .68a.43.43 0 00.47.35c.55-.21 2 .1 2-.67a.41.41 0 00-.47-.36zM58.92 33.8a.42.42 0 00-.54-.23c-.49.33-2 .46-1.74 1.22.45.64 1.45-.36 2-.45a.43.43 0 00.28-.54zM63.65 32.31a.42.42 0 00-.5-.3c-.53.27-2 .18-1.89 1 .35.7 1.48-.15 2.09-.16a.42.42 0 00.3-.54zM46.58 42c-.68-.43-1.23.89-1.72 1.24a.42.42 0 000 .59c.7.39 1.17-.91 1.69-1.25a.41.41 0 00.03-.58zM50.3 38.67a.41.41 0 00-.58-.07c-.38.46-1.75 1-1.34 1.65.6.5 1.3-.74 1.85-1a.42.42 0 00.07-.58zM67.87 42.13c-.54.22-2 0-2 .84.27.71 1.5-.06 2.09 0a.42.42 0 00-.09-.84zM63.22 43.47a8.34 8.34 0 00-1.74.7.42.42 0 00-.23.44h1.28l.79-.35a.41.41 0 00-.1-.79zM71.27 41.8a.41.41 0 00-.12.8 5.3 5.3 0 00.8 0v-.8zM1.15 31H0v.82c.49-.09 1.42.31 1.55-.37a.42.42 0 00-.4-.45zM11 32.65c-.59-.06-1.79-.9-2.11-.18a.4.4 0 00.29.5c.57.14 1.12.36 1.69.49a.42.42 0 00.13-.81zM6.15 31.46c-.58 0-1.92-.65-2.12.12a.4.4 0 00.16.36 11.67 11.67 0 001.89.34.42.42 0 00.07-.82zM15.67 34.52c-.56-.14-1.65-1.16-2.06-.47a.4.4 0 00.22.53c.56.21 1.09.56 1.66.72a.41.41 0 00.18-.78zM22.71 39a.41.41 0 00-.52.64c.53.34.93 1 1.52 1.17 1.22-.39-.62-1.39-1-1.81zM26.37 42.44c-.35-.4-1 .17-.6.56s1 1.66 1.66 1.27c.57-.6-.76-1.33-1.06-1.83zM18.61 36.11a.41.41 0 00-.42.71c.54.19 1.44 1.32 1.94.77.36-.71-1.13-1.07-1.52-1.48zM5.94 42.53c-.57 0-1.89-.77-2.12 0a.41.41 0 00.33.47c.57.09 1.14.26 1.7.36a.41.41 0 00.09-.83zM10.67 44.28c-.57-.16-1.46-1-2-.58-.39.52.37.74.73.91h1.5a.4.4 0 00-.23-.33zM1 41.81H0v.83h1a.41.41 0 000-.83z" fill="#000000" fill-opacity="0.1" />
</svg>